<svg width="180" height="38" viewBox="0 0 180 38" fill="none" xmlns="http://www.w3.org/2000/svg">
  <defs>
    <linearGradient id="fireGradient" x1="0%" y1="0%" x2="100%" y2="100%">
      <stop offset="0%" style="stop-color:#ff6b35;stop-opacity:1" />
      <stop offset="50%" style="stop-color:#f7931e;stop-opacity:1" />
      <stop offset="100%" style="stop-color:#fdc830;stop-opacity:1" />
    </linearGradient>
    <linearGradient id="textGradient" x1="0%" y1="0%" x2="100%" y2="0%">
      <stop offset="0%" style="stop-color:#f8f9fa;stop-opacity:1" />
      <stop offset="100%" style="stop-color:#e9ecef;stop-opacity:1" />
    </linearGradient>
  </defs>
  
  <!-- Flame icon -->
  <path d="M12 8c0-2 2-4 4-4 1 0 2 1 2 2 0 3-2 5-4 7-2-2-4-4-4-7 0-1 1-2 2-2z" fill="url(#fireGradient)" opacity="0.9"/>
  <path d="M10 12c0-1.5 1.5-3 3-3 .75 0 1.5.75 1.5 1.5 0 2.25-1.5 3.75-3 5.25-1.5-1.5-3-3-3-5.25 0-.75.75-1.5 1.5-1.5z" fill="url(#fireGradient)" opacity="0.7"/>
  
  <!-- CTF Text -->
  <text x="28" y="26" font-family="Inter, system-ui, sans-serif" font-size="16" font-weight="700" fill="url(#textGradient)" letter-spacing="0.5">CTF</text>
  
  <!-- Candor Through Fire Text -->
  <text x="60" y="26" font-family="Inter, system-ui, sans-serif" font-size="11" font-weight="500" fill="#adb5bd" letter-spacing="0.3">CANDOR THROUGH FIRE</text>
</svg>
